Coordinates
version=1
nRows=26
nColumns=24
inDegrees=yes

Units are S.I. units (second, meters, Newtons, ...)
Angles are in degrees.

endheader
time	pelvis_tilt	pelvis_list	pelvis_rotation	pelvis_tx	pelvis_ty	pelvis_tz	hip_flexion_r	hip_adduction_r	hip_rotation_r	knee_angle_r	ankle_angle_r	subtalar_angle_r	mtp_angle_r	hip_flexion_l	hip_adduction_l	hip_rotation_l	knee_angle_l	ankle_angle_l	subtalar_angle_l	mtp_angle_l	lumbar_extension	lumbar_bending	lumbar_rotation
      2.30500000	     -6.26557301	     -1.04133758	      1.84337964	      0.45800505	      1.22882683	     -0.84679446	      3.91567116	      6.17860041	     -5.86095091	    -38.73625843	      1.47096991	      2.75336219	     26.11859301	     28.45774400	      8.03052809	     10.02280944	    -20.41522349	     -9.61211473	     -8.04198527	      6.94945356	     -5.80855540	     -0.17553260	      3.95492658
      2.31000000	     -6.13638412	     -0.73888906	      1.99191758	      0.46370901	      1.22941098	     -0.84720028	      4.67756099	      5.50224981	     -6.54845857	    -40.62214947	      0.00010026	      2.67157460	     26.51301967	     27.89361324	      8.42858977	     10.08306564	    -20.50328268	     -9.33234091	     -7.99189010	      6.99844700	     -5.85985609	     -0.57857234	      3.85934326
      2.31500000	     -6.11746146	     -0.45929979	      2.16378925	      0.46932771	      1.22981989	     -0.84764684	      5.59865859	      4.84499258	     -7.16875951	    -42.50238620	     -1.41842121	      2.41427850	     26.87478053	     27.48096398	      8.83322764	     10.20114580	    -20.64324460	     -8.98418836	     -8.03729351	      7.01400433	     -5.80631953	     -0.95731653	      3.70979938
      2.32000000	     -6.07401449	     -0.17427659	      2.32716590	      0.47493328	      1.23029191	     -0.84807148	      6.48235766	      4.18570245	     -7.70582982	    -44.29587733	     -2.80732604	      2.12199940	     26.97375735	     26.98226104	      9.22005251	     10.28362220	    -20.67506470	     -8.63160946	     -8.01616205	      7.05270291	     -5.77739164	     -1.33597290	      3.57379767
      2.32500000	     -6.03668919	      0.09228704	      2.47999550	      0.48049007	      1.23076677	     -0.84846552	      7.36900902	      3.56792327	     -8.13855207	    -46.00713490	     -4.21912876	      1.78647631	     26.44175150	     26.46891647	      9.57045723	     10.33466458	    -20.66381456	     -8.22585348	     -7.92724789	      7.08860441	     -5.74475439	     -1.69254530	      3.46094263
      2.33000000	     -6.02027317	      0.34080676	      2.64337135	      0.48598454	      1.23121351	     -0.84887382	      8.28023633	      2.97399405	     -8.52821890	    -47.64503164	     -5.42542679	      1.35608037	     25.91375968	     25.97526644	      9.90439310	     10.39577837	    -20.63885431	     -7.81693514	     -7.83676055	      7.16906477	     -5.69506358	     -2.02806966	      3.35676042
      2.33500000	     -6.02250836	      0.57606972	      2.79004563	      0.49143773	      1.23166037	     -0.84921764	      9.21046170	      2.43249873	     -8.80261879	    -49.19635019	     -6.48095448	      0.85190199	     25.07978009	     25.47683927	     10.20032632	     10.41155904	    -20.55902989	     -7.38242184	     -7.70086898	      7.26143796	     -5.63556982	     -2.34972525	      3.18247471
      2.34000000	     -6.01396473	      0.79121961	      2.92917963	      0.49683997	      1.23213646	     -0.84955290	     10.11727482	      1.93258464	     -9.01454286	    -50.64513722	     -7.35373318	      0.38733645	     24.01854153	     24.95159907	     10.46117151	     10.39895112	    -20.44387373	     -6.92841483	     -7.49821822	      7.36445833	     -5.59618222	     -2.64286002	      3.02257156
      2.34500000	     -5.97253190	      0.97423298	      3.07560988	      0.50218646	      1.23267950	     -0.84989955	     10.96702752	      1.48189391	     -9.19649097	    -51.97270961	     -8.07406814	      0.05187123	     22.68370070	     24.36976232	     10.68215647	     10.41516270	    -20.28823823	     -6.45222027	     -7.20565887	      7.45150329	     -5.59153261	     -2.89685600	      2.89182269
      2.35000000	     -6.01115410	      1.13010239	      3.18757061	      0.50744970	      1.23314188	     -0.85017646	     11.93192594	      1.10869546	     -9.26421785	    -53.22900134	     -8.48839633	     -0.53162194	     21.79022405	     23.90660266	     10.86053083	     10.36531076	    -20.16636647	     -6.01425569	     -7.00969469	      7.55257230	     -5.51926167	     -3.12604677	      2.73952257
      2.35500000	     -6.01174620	      1.25483825	      3.30328616	      0.51264797	      1.23365896	     -0.85044772	     12.83537920	      0.78834819	     -9.31499579	    -54.36653627	     -8.79001989	     -0.99309805	     20.47755284	     23.39740706	     10.99627104	     10.31585584	    -20.02970521	     -5.50924572	     -6.66052142	      7.67312942	     -5.49385736	     -3.31722476	      2.60786384
      2.36000000	     -6.00729324	      1.35600067	      3.41604639	      0.51779900	      1.23420717	     -0.85073991	     13.72198146	      0.50439769	     -9.34819446	    -55.38743710	     -8.87907375	     -1.39862486	     19.31864435	     22.87040713	     11.10880392	     10.30633074	    -19.86780801	     -5.03508721	     -6.32922774	      7.74005748	     -5.47594575	     -3.47280379	      2.48666051
      2.36500000	     -6.02387791	      1.42723512	      3.51098975	      0.52285646	      1.23473451	     -0.85097656	     14.63936146	      0.29120311	     -9.31762877	    -56.31128888	     -8.80331419	     -1.84049396	     18.25235120	     22.38631455	     11.17723418	     10.25988188	    -19.72070839	     -4.55154325	     -5.99558016	      7.81956394	     -5.45783674	     -3.60156573	      2.34667239
      2.37000000	     -6.04120935	      1.47757716	      3.59265561	      0.52787627	      1.23527973	     -0.85118348	     15.54572917	      0.12698745	     -9.25336363	    -57.11681109	     -8.56686337	     -2.24422594	     17.21483380	     21.90298014	     11.21480256	     10.20520107	    -19.56532300	     -4.09254844	     -5.63559133	      7.86596296	     -5.44541025	     -3.69948784	      2.17491417
      2.37500000	     -6.09437349	      1.50696239	      3.65083918	      0.53280201	      1.23577367	     -0.85136941	     16.50872993	      0.00540003	     -9.14861839	    -57.83814984	     -8.22399339	     -2.65461582	     16.39294394	     21.48500021	     11.23055083	     10.15305884	    -19.44187830	     -3.63443715	     -5.34550425	      7.93275565	     -5.40677005	     -3.77635761	      2.06894914
      2.38000000	     -6.15612900	      1.53393876	      3.68756178	      0.53770058	      1.23626920	     -0.85150047	     17.47536250	     -0.08518974	     -9.00186576	    -58.45462793	     -7.75787596	     -3.02038758	     15.70591843	     21.07466329	     11.23034886	     10.06458892	    -19.30107633	     -3.26344284	     -5.06869969	      7.98768483	     -5.36926255	     -3.84346329	      1.90635372
      2.38500000	     -6.17944268	      1.51778027	      3.74087629	      0.54253590	      1.23679679	     -0.85165448	     18.36770916	     -0.11744736	     -8.88516663	    -58.93184975	     -7.23096509	     -3.34044918	     14.77303115	     20.63523038	     11.19430389	     10.04260242	    -19.18739758	     -2.77484336	     -4.70286434	      7.98777509	     -5.37989785	     -3.86052138	      1.77307795
      2.39000000	     -6.20860042	      1.51659635	      3.77857170	      0.54734436	      1.23730626	     -0.85181425	     19.26445281	     -0.16784659	     -8.76373998	    -59.31058661	     -6.56060487	     -3.68955937	     14.51894558	     20.16815887	     11.17873290	     10.07296895	    -19.00019973	     -2.47182142	     -4.62151333	      8.02312317	     -5.38881316	     -3.88323294	      1.64780738
      2.39500000	     -6.33151365	      1.48020780	      3.77649012	      0.55204720	      1.23767874	     -0.85184220	     20.29078669	     -0.11583906	     -8.54012273	    -59.63231778	     -5.97100613	     -3.90132029	     13.53215342	     19.90948758	     11.10755408	      9.97718052	    -18.98643240	     -1.94659699	     -4.19610503	      8.03129721	     -5.32228505	     -3.88531090	      1.53880514
      2.40000000	     -6.42131515	      1.46979234	      3.76471938	      0.55676207	      1.23806929	     -0.85188322	     21.26077452	     -0.09835299	     -8.33266243	    -59.84618451	     -5.26716616	     -4.14325002	     13.11063373	     19.56236018	     11.06565111	      9.92580692	    -18.87521469	     -1.62256388	     -4.03740908	      8.02208845	     -5.28750645	     -3.89905058	      1.40787602
      2.40500000	     -6.50446648	      1.42455150	      3.76559223	      0.56142156	      1.23844722	     -0.85193580	     22.19257765	     -0.02787378	     -8.13328251	    -59.93048732	     -4.55723813	     -4.34230736	     12.52500381	     19.23462816	     10.99629434	      9.91661816	    -18.81039826	     -1.19433603	     -3.78596306	      7.98961900	     -5.27154271	     -3.86990414	      1.29832673
      2.41000000	     -6.59342029	      1.40274069	      3.74288840	      0.56604976	      1.23878835	     -0.85192676	     23.12917843	      0.03449277	     -7.91040959	    -59.93462811	     -3.81734393	     -4.56240671	     12.18538865	     18.90776727	     10.94495911	      9.89597015	    -18.72520407	     -0.88940936	     -3.66518694	      7.97804077	     -5.25884742	     -3.86861293	      1.16948400
      2.41500000	     -6.64703382	      1.34951048	      3.73296491	      0.57069479	      1.23916323	     -0.85196521	     23.97430822	      0.12618241	     -7.73267540	    -59.78640968	     -3.06616554	     -4.81830246	     11.95346029	     18.52253797	     10.86926582	      9.95447331	    -18.60921030	     -0.58045238	     -3.62725416	      7.98414381	     -5.27651935	     -3.81805148	      1.06078878
      2.42000000	     -6.80143955	      1.31216767	      3.68487187	      0.57533402	      1.23936885	     -0.85190146	     24.94846872	      0.23572132	     -7.47400051	    -59.60483106	     -2.37507027	     -4.88949775	     11.42681444	     18.30584868	     10.79620794	      9.87725779	    -18.59239467	     -0.16533707	     -3.38223536	      7.94628984	     -5.19197683	     -3.79605060	      0.93145005
      2.42500000	     -6.87446794	      1.27019085	      3.64783513	      0.57990750	      1.23964080	     -0.85185106	     25.78784873	      0.36032101	     -7.23050432	    -59.28560427	     -1.67130138	     -5.07655765	     11.05968583	     17.98527829	     10.72479784	      9.89038807	    -18.54788502	      0.18413043	     -3.24438677	      7.88297228	     -5.20997735	     -3.75965096	      0.80856428
      2.43000000	     -6.96757125	      1.21976165	      3.60803219	      0.58454626	      1.23987448	     -0.85180866	     26.61044736	      0.48839719	     -7.00959184	    -58.85372308	     -1.00703272	     -5.23772355	     10.74530244	     17.67889208	     10.64554214	      9.89070382	    -18.49364628	      0.53712742	     -3.14054933	      7.82701933	     -5.19063736	     -3.70547501	      0.68395840
